 <svg class="w-6 h-6 fill-white hover:fill-black transition duration-300"
            xmlns="http://www.w3.org/2000/svg"
            viewBox="0 0 24 24">
            <path d="M22.675 0h-21.35c-.73 0-1.325.595-1.325 1.325v21.351c0 .729.595 1.324 1.325 1.324h11.49v-9.294h-3.128v-3.622h3.128v-2.671c0-3.1 1.892-4.785 4.658-4.785 1.324 0 2.462.099 2.794.143v3.24l-1.918.001c-1.504 0-1.794.715-1.794 1.763v2.309h3.587l-.467 3.622h-3.12v9.294h6.116c.729 0 1.324-.595 1.324-1.324v-21.35c0-.73-.595-1.325-1.324-1.325z"/>
        </svg>