<svg className="w-6 h-6 fill-white hover:fill-black transition duration-300" 
            xmlns="http://www.w3.org/2000/svg" 
            viewBox="0 0 24 24">
            <path d="M7.001 2c-2.762 0-5.001 2.238-5.001 5v10c0 2.761 2.238 5 5 5h10c2.761 0 5-2.238 5-5v-10c0-2.761-2.238-5-5-5h-10zm0 2h10c1.662 0 3 1.338 3 3v10c0 1.662-1.338 3-3 3h-10c-1.662 0-3-1.338-3-3v-10c0-1.662 1.338-3 3-3zm10.5 1c-.827 0-1.5.673-1.5 1.5s.673 1.5 1.5 1.5 1.5-.673 1.5-1.5-.673-1.5-1.5-1.5zm-5.5 2c-2.761 0-5 2.238-5 5s2.239 5 5 5 5-2.238 5-5-2.239-5-5-5zm0 2c1.662 0 3 1.338 3 3s-1.338 3-3 3-3-1.338-3-3 1.338-3 3-3z"/>
        </svg>