<svg class="w-6 h-6 fill-white hover:fill-black transition duration-300"
            xmlns="http://www.w3.org/2000/svg"
            viewBox="0 0 24 24">
            <path d="M22.23 0h-20.46c-.97 0-1.77.8-1.77 1.77v20.46c0 .97.8 1.77 1.77 1.77h20.46c.97 0 1.77-.8 1.77-1.77v-20.46c0-.97-.8-1.77-1.77-1.77zm-14.92 20.45h-3.58v-11.34h3.58v11.34zm-1.79-12.92c-1.14 0-2.07-.93-2.07-2.07s.93-2.07 2.07-2.07 2.07.93 2.07 2.07-.93 2.07-2.07 2.07zm14.91 12.92h-3.58v-5.49c0-1.31-.02-3-1.83-3s-2.12 1.43-2.12 2.9v5.59h-3.58v-11.34h3.44v1.55h.05c.48-.91 1.65-1.86 3.39-1.86 3.63 0 4.3 2.39 4.3 5.49v6.16z"/>
        </svg>